<?xml version="1.0" encoding="UTF-8" standalone="no"?>
<!-- Created with Inkscape (http://www.inkscape.org/) -->

<svg
   xmlns:dc="http://purl.org/dc/elements/1.1/"
   xmlns:cc="http://creativecommons.org/ns#"
   xmlns:rdf="http://www.w3.org/1999/02/22-rdf-syntax-ns#"
   xmlns:svg="http://www.w3.org/2000/svg"
   xmlns="http://www.w3.org/2000/svg"
   xmlns:inkscape="http://www.inkscape.org/namespaces/inkscape"
   version="1.1"
   width="303"
   height="267"
   id="svg2"
   xml:space="preserve"><metadata
     id="metadata8"><rdf:RDF><cc:Work
         rdf:about=""><dc:format>image/svg+xml</dc:format><dc:type
           rdf:resource="http://purl.org/dc/dcmitype/StillImage" /></cc:Work></rdf:RDF></metadata><path
             d="M 0,0 -2.406,0 -37.854,0 -9.803,52.989 18.176,11.449 C 18.174,11.448 18.172,11.446 18.17,11.445 L 25.885,0 0,0 z m -94.625,-158.38 47.281,136.178 2.877,8.287 13.377,0 2.885,0 50.619,0 -117.039,-144.465 z m -14.314,1.243 -37.481,102.663 10e-4,0 0.001,0 -14.814,40.559 102.037,0 -4.721,-13.587 c 0,0 0,-0.001 -0.002,-0.001 l -45.021,-129.634 z m -90.165,91.157 0.001,0 -42.34,52.065 65.137,0 0.908,-1.807 14.933,-40.91 -0.003,0 37.675,-103.163 -76.311,93.815 z M -209.829,52.739 -183.295,0 l -61.588,0 35.054,52.739 z m 82.391,8.53 -42.208,-57.422 -28.901,57.453 71.109,-0.031 z M -67.592,0 -155.213,0 -111.575,59.399 -67.592,0 z m 46.391,61.229 -31.006,-58.61 -43.42,58.642 74.426,-0.032 z m 51.822,-43.363 0.01,0.006 -34.469,51.151 c -2.635,3.878 -6.918,6.192 -11.469,6.192 l -188.822,0 c -4.565,0 -8.873,-2.337 -11.523,-6.27 l -42.341,-63.55 c -2.838,-4.261 -2.455,-12.837 -2.455,-12.837 0.196,-2.987 1.337,-7.162 3.573,-9.537 l 42.122,-51.792 10e-4,0 95.421,-117.323 c 2.659,-2.861 6.225,-4.425 10.056,-4.425 3.806,0 7.488,1.619 10.38,4.786 L 37.541,-17.315 c 2.58,2.758 3.715,6.894 3.934,9.826 0,0.078 0.398,8.646 -2.496,12.946 l -8.358,12.409 z"
             inkscape:connector-curvature="0"
             id="path22"
             style="fill:#000000;fill-opacity:1;fill-rule:nonzero;stroke:none" /></svg>